<svg width="16.799805" height="19.200012" viewBox="0 0 16.7998 19.2" fill="none" xmlns="http://www.w3.org/2000/svg" xmlns:xlink="http://www.w3.org/1999/xlink">
	<desc>
			Created with Pixso.
	</desc>
	<defs/>
	<path id="Subtract" d="M1.2002 1.79999L1.2002 17.4L0.899902 17.4C0.402832 17.4 0 17.8029 0 18.3C0 18.7971 0.402832 19.2 0.899902 19.2L5.1001 19.2C5.59717 19.2 6 18.7971 6 18.3L6 15.3C6 14.8029 6.40283 14.4 6.8999 14.4L9.8999 14.4C10.397 14.4 10.7998 14.8029 10.7998 15.3L10.7998 18.3C10.7998 18.7971 11.2031 19.2 11.7002 19.2L15.8999 19.2C16.397 19.2 16.7998 18.7971 16.7998 18.3C16.7998 17.8029 16.397 17.4 15.8999 17.4L15.6001 17.4L15.6001 1.79999L15.8999 1.79999C16.397 1.79999 16.7998 1.39703 16.7998 0.900024C16.7998 0.402954 16.397 0 15.8999 0L0.899902 0C0.402832 0 0 0.402954 0 0.900024C0 1.39703 0.402832 1.79999 0.899902 1.79999L1.2002 1.79999ZM4.7998 4.20001C4.7998 3.86865 5.06885 3.59998 5.3999 3.59998L6.6001 3.59998C6.93115 3.59998 7.2002 3.86865 7.2002 4.20001L7.2002 5.40002C7.2002 5.73138 6.93115 6 6.6001 6L5.3999 6C5.06885 6 4.7998 5.73138 4.7998 5.40002L4.7998 4.20001ZM9.6001 4.20001C9.6001 3.86865 9.86865 3.59998 10.2002 3.59998L11.3999 3.59998C11.7314 3.59998 12 3.86865 12 4.20001L12 5.40002C12 5.73138 11.7314 6 11.3999 6L10.2002 6C9.86865 6 9.6001 5.73138 9.6001 5.40002L9.6001 4.20001ZM5.3999 8.40002C5.06885 8.40002 4.7998 8.66864 4.7998 9L4.7998 10.2C4.7998 10.5314 5.06885 10.8 5.3999 10.8L6.6001 10.8C6.93115 10.8 7.2002 10.5314 7.2002 10.2L7.2002 9C7.2002 8.66864 6.93115 8.40002 6.6001 8.40002L5.3999 8.40002ZM10.2002 8.40002C9.86865 8.40002 9.6001 8.66864 9.6001 9L9.6001 10.2C9.6001 10.5314 9.86865 10.8 10.2002 10.8L11.3999 10.8C11.7314 10.8 12 10.5314 12 10.2L12 9C12 8.66864 11.7314 8.40002 11.3999 8.40002L10.2002 8.40002Z" clip-rule="evenodd" fill="#FFFFFF" fill-opacity="1.000000" fill-rule="evenodd"/>
</svg>
