<svg width="82.000000" height="82.000000" viewBox="0 0 82 82" fill="none" xmlns="http://www.w3.org/2000/svg" xmlns:xlink="http://www.w3.org/1999/xlink">
	<desc>
			Created with Pixso.
	</desc>
	<defs>
		<clipPath id="clip122_1931">
			<rect id="Icon" rx="0.000000" width="33.000000" height="33.000000" transform="translate(24.500000 24.500000)" fill="white" fill-opacity="0"/>
		</clipPath>
		<linearGradient x1="6.750008" y1="86.499977" x2="85.750023" y2="-5.499985" id="paint_linear_121_1908_0" gradientUnits="userSpaceOnUse">
			<stop stop-color="#A685FA"/>
			<stop offset="0.323723" stop-color="#A685FA" stop-opacity="0.000000"/>
		</linearGradient>
		<linearGradient x1="81.750000" y1="-10.500015" x2="6.750031" y2="82.000008" id="paint_linear_121_1908_1" gradientUnits="userSpaceOnUse">
			<stop stop-color="#A685FA"/>
			<stop offset="0.576615" stop-color="#A685FA" stop-opacity="0.000000"/>
		</linearGradient>
		<linearGradient x1="3.250000" y1="13.500000" x2="71.750000" y2="72.000000" id="paint_linear_121_1909_0" gradientUnits="userSpaceOnUse">
			<stop stop-color="#A685FA"/>
			<stop offset="0.323723" stop-color="#A685FA" stop-opacity="0.000000"/>
		</linearGradient>
		<linearGradient x1="84.250000" y1="86.000015" x2="12.249989" y2="35.000031" id="paint_linear_121_1909_1" gradientUnits="userSpaceOnUse">
			<stop stop-color="#A685FA"/>
			<stop offset="0.576615" stop-color="#A685FA" stop-opacity="0.000000"/>
		</linearGradient>
	</defs>
	<g clip-path="url(#clip122_1931)">
		<path id="Subtract" d="M26.97 27.4C26.27 27.4 25.7 27.97 25.7 28.67C25.7 29.37 26.27 29.95 26.97 29.95L27.4 29.95L27.4 52.05L26.97 52.05C26.27 52.05 25.7 52.62 25.7 53.32C25.7 54.02 26.27 54.6 26.97 54.6L31.22 54.6C31.92 54.6 32.5 54.02 32.5 53.32L32.5 49.07C32.5 48.37 33.07 47.8 33.77 47.8L38.02 47.8C38.72 47.8 39.3 48.37 39.3 49.07L39.3 53.32C39.3 54.02 39.87 54.6 40.57 54.6L43.12 54.6C43.82 54.6 44.4 54.02 44.4 53.32L44.4 29.95L44.82 29.95C45.52 29.95 46.1 29.37 46.1 28.67C46.1 27.97 45.52 27.4 44.82 27.4L26.97 27.4ZM31.65 32.5C31.18 32.5 30.8 32.88 30.8 33.34L30.8 35.05C30.8 35.51 31.18 35.9 31.65 35.9L33.35 35.9C33.81 35.9 34.2 35.51 34.2 35.05L34.2 33.34C34.2 32.88 33.81 32.5 33.35 32.5L31.65 32.5ZM38.45 32.5C37.98 32.5 37.6 32.88 37.6 33.34L37.6 35.05C37.6 35.51 37.98 35.9 38.45 35.9L40.15 35.9C40.61 35.9 41 35.51 41 35.05L41 33.34C41 32.88 40.61 32.5 40.15 32.5L38.45 32.5ZM46.95 35.47C46.95 34.77 47.52 34.2 48.22 34.2L55.02 34.2C55.72 34.2 56.3 34.77 56.3 35.47C56.3 36.17 55.72 36.75 55.02 36.75L54.6 36.75L54.6 52.05L55.02 52.05C55.72 52.05 56.3 52.62 56.3 53.32C56.3 54.02 55.72 54.6 55.02 54.6L48.65 54.6C47.71 54.6 46.95 53.83 46.95 52.9L46.95 35.47ZM30.8 40.15C30.8 39.68 31.18 39.3 31.65 39.3L33.35 39.3C33.81 39.3 34.2 39.68 34.2 40.15L34.2 41.85C34.2 42.31 33.81 42.7 33.35 42.7L31.65 42.7C31.18 42.7 30.8 42.31 30.8 41.85L30.8 40.15ZM37.6 40.15C37.6 39.68 37.98 39.3 38.45 39.3L40.15 39.3C40.61 39.3 41 39.68 41 40.15L41 41.85C41 42.31 40.61 42.7 40.15 42.7L38.45 42.7C37.98 42.7 37.6 42.31 37.6 41.85L37.6 40.15ZM49.92 39.3C49.45 39.3 49.07 39.68 49.07 40.15L49.07 41.85C49.07 42.31 49.45 42.7 49.92 42.7L51.62 42.7C52.09 42.7 52.47 42.31 52.47 41.85L52.47 40.15C52.47 39.68 52.09 39.3 51.62 39.3L49.92 39.3ZM49.07 46.95C49.07 46.48 49.45 46.1 49.92 46.1L51.62 46.1C52.09 46.1 52.47 46.48 52.47 46.95L52.47 48.65C52.47 49.11 52.09 49.5 51.62 49.5L49.92 49.5C49.45 49.5 49.07 49.11 49.07 48.65L49.07 46.95Z" fill="#A685FA" fill-opacity="1.000000" fill-rule="evenodd"/>
	</g>
	<rect id="Container" rx="30.500000" width="61.000000" height="61.000000" transform="translate(10.500000 10.500000)" stroke="url(#paint_linear_121_1909_0)" stroke-opacity="1.000000" stroke-width="1.000000"/>
	<rect id="Container" rx="30.500000" width="61.000000" height="61.000000" transform="translate(10.500000 10.500000)" stroke="url(#paint_linear_121_1909_1)" stroke-opacity="1.000000" stroke-width="1.000000"/>
	<rect id="Icon Container" rx="40.500000" width="81.000000" height="81.000000" transform="translate(0.500000 0.500000)" stroke="url(#paint_linear_121_1908_0)" stroke-opacity="1.000000" stroke-width="1.000000"/>
	<rect id="Icon Container" rx="40.500000" width="81.000000" height="81.000000" transform="translate(0.500000 0.500000)" stroke="url(#paint_linear_121_1908_1)" stroke-opacity="1.000000" stroke-width="1.000000"/>
</svg>
