<svg width="30.000000" height="30.000000" viewBox="0 0 30 30" fill="none" xmlns="http://www.w3.org/2000/svg" xmlns:xlink="http://www.w3.org/1999/xlink">
	<desc>
			Created with Pixso.
	</desc>
	<defs>
		<clipPath id="clip75_591">
			<rect id="Icon" rx="0.000000" width="29.000000" height="29.000000" transform="translate(0.500000 0.500000)" fill="white" fill-opacity="0"/>
		</clipPath>
	</defs>
	<g clip-path="url(#clip75_591)">
		<path id="Vector (Stroke)" d="M4.5 15C4.5 14.37 5 13.87 5.62 13.87L21.58 13.87L15.34 7.93C14.89 7.5 14.88 6.79 15.31 6.34C15.74 5.89 16.45 5.88 16.9 6.31L25.15 14.18C25.37 14.4 25.5 14.69 25.5 15C25.5 15.3 25.37 15.59 25.15 15.81L16.9 23.68C16.45 24.11 15.74 24.1 15.31 23.65C14.88 23.2 14.89 22.49 15.34 22.06L21.58 16.12L5.62 16.12C5 16.12 4.5 15.62 4.5 15Z" fill="#FFFFFF" fill-opacity="1.000000" fill-rule="evenodd"/>
	</g>
</svg>
