<svg width="82.000000" height="82.000000" viewBox="0 0 82 82" fill="none" xmlns="http://www.w3.org/2000/svg" xmlns:xlink="http://www.w3.org/1999/xlink">
	<desc>
			Created with Pixso.
	</desc>
	<defs>
		<clipPath id="clip122_1929">
			<rect id="Icon" rx="0.000000" width="33.000000" height="33.000000" transform="translate(24.500000 24.500000)" fill="white" fill-opacity="0"/>
		</clipPath>
		<linearGradient x1="6.750008" y1="86.499977" x2="85.750023" y2="-5.499985" id="paint_linear_121_1900_0" gradientUnits="userSpaceOnUse">
			<stop stop-color="#A685FA"/>
			<stop offset="0.323723" stop-color="#A685FA" stop-opacity="0.000000"/>
		</linearGradient>
		<linearGradient x1="81.750000" y1="-10.500015" x2="6.750031" y2="82.000008" id="paint_linear_121_1900_1" gradientUnits="userSpaceOnUse">
			<stop stop-color="#A685FA"/>
			<stop offset="0.576615" stop-color="#A685FA" stop-opacity="0.000000"/>
		</linearGradient>
		<linearGradient x1="3.250000" y1="13.500000" x2="71.750000" y2="72.000000" id="paint_linear_121_1901_0" gradientUnits="userSpaceOnUse">
			<stop stop-color="#A685FA"/>
			<stop offset="0.323723" stop-color="#A685FA" stop-opacity="0.000000"/>
		</linearGradient>
		<linearGradient x1="84.250000" y1="86.000015" x2="12.249989" y2="35.000031" id="paint_linear_121_1901_1" gradientUnits="userSpaceOnUse">
			<stop stop-color="#A685FA"/>
			<stop offset="0.576615" stop-color="#A685FA" stop-opacity="0.000000"/>
		</linearGradient>
	</defs>
	<g clip-path="url(#clip122_1929)">
		<path id="Union" d="M26.12 30.9C26.12 29.43 27.31 28.25 28.78 28.25L53.21 28.25C54.68 28.25 55.87 29.43 55.87 30.9L55.87 44.71C55.87 46.18 54.68 47.37 53.21 47.37L28.78 47.37C27.31 47.37 26.12 46.18 26.12 44.71L26.12 30.9ZM35.68 37.81C35.68 34.87 38.06 32.5 41 32.5C43.93 32.5 46.31 34.87 46.31 37.81C46.31 40.74 43.93 43.12 41 43.12C38.06 43.12 35.68 40.74 35.68 37.81ZM41 34.62C39.23 34.62 37.81 36.05 37.81 37.81C37.81 39.57 39.23 41 41 41C42.76 41 44.18 39.57 44.18 37.81C44.18 36.05 42.76 34.62 41 34.62ZM30.37 37.81C30.37 37.22 30.85 36.75 31.43 36.75L31.44 36.75C32.03 36.75 32.51 37.22 32.51 37.81L32.51 37.82C32.51 38.4 32.03 38.88 31.44 38.88L31.43 38.88C30.85 38.88 30.37 38.4 30.37 37.82L30.37 37.81ZM50.56 36.75C49.97 36.75 49.5 37.22 49.5 37.81L49.5 37.82C49.5 38.4 49.97 38.88 50.56 38.88L50.57 38.88C51.16 38.88 51.63 38.4 51.63 37.82L51.63 37.81C51.63 37.22 51.16 36.75 50.57 36.75L50.56 36.75ZM26.12 50.56C26.12 49.97 26.6 49.5 27.18 49.5L51.62 49.5C52.21 49.5 52.68 49.97 52.68 50.56L52.68 51.98C52.68 53.77 50.97 55.02 49.28 54.56C42.24 52.64 34.83 51.62 27.18 51.62C26.6 51.62 26.12 51.14 26.12 50.56Z" fill="#A685FA" fill-opacity="1.000000" fill-rule="evenodd"/>
	</g>
	<rect id="Container" rx="30.500000" width="61.000000" height="61.000000" transform="translate(10.500000 10.500000)" stroke="url(#paint_linear_121_1901_0)" stroke-opacity="1.000000" stroke-width="1.000000"/>
	<rect id="Container" rx="30.500000" width="61.000000" height="61.000000" transform="translate(10.500000 10.500000)" stroke="url(#paint_linear_121_1901_1)" stroke-opacity="1.000000" stroke-width="1.000000"/>
	<rect id="Icon Container" rx="40.500000" width="81.000000" height="81.000000" transform="translate(0.500000 0.500000)" stroke="url(#paint_linear_121_1900_0)" stroke-opacity="1.000000" stroke-width="1.000000"/>
	<rect id="Icon Container" rx="40.500000" width="81.000000" height="81.000000" transform="translate(0.500000 0.500000)" stroke="url(#paint_linear_121_1900_1)" stroke-opacity="1.000000" stroke-width="1.000000"/>
</svg>
