<svg width="1612.000000" height="899.500000" viewBox="0 0 1612 899.5" fill="none" xmlns="http://www.w3.org/2000/svg" xmlns:xlink="http://www.w3.org/1999/xlink">
	<desc>
			Created with Pixso.
	</desc>
	<defs>
		<filter id="filter_60_3106_dd" x="54.233887" y="14.626709" width="109.766113" height="28.522705" filterUnits="userSpaceOnUse" color-interpolation-filters="sRGB">
			<feFlood flood-opacity="0" result="BackgroundImageFix"/>
			<feColorMatrix in="SourceAlpha" type="matrix" values="0 0 0 0 0 0 0 0 0 0 0 0 0 0 0 0 0 0 127 0" result="hardAlpha"/>
			<feOffset dx="0" dy="4"/>
			<feGaussianBlur stdDeviation="1.33333"/>
			<feComposite in2="hardAlpha" operator="out" k2="-1" k3="1"/>
			<feColorMatrix type="matrix" values="0 0 0 0 0 0 0 0 0 0 0 0 0 0 0 0 0 0 0.25 0"/>
			<feBlend mode="normal" in2="BackgroundImageFix" result="effect_dropShadow_1"/>
			<feColorMatrix in="SourceAlpha" type="matrix" values="0 0 0 0 0 0 0 0 0 0 0 0 0 0 0 0 0 0 127 0" result="hardAlpha"/>
			<feOffset dx="0" dy="4"/>
			<feGaussianBlur stdDeviation="1.33333"/>
			<feComposite in2="hardAlpha" operator="out" k2="-1" k3="1"/>
			<feColorMatrix type="matrix" values="0 0 0 0 0 0 0 0 0 0 0 0 0 0 0 0 0 0 0.25 0"/>
			<feBlend mode="normal" in2="effect_dropShadow_1" result="effect_dropShadow_2"/>
			<feBlend mode="normal" in="SourceGraphic" in2="effect_dropShadow_2" result="shape"/>
		</filter>
	</defs>
	<path id="Vector" d="M24 48C10.74 48 0 37.25 0 24L24 24L24 48Z" fill="#703BF7" fill-opacity="1.000000" fill-rule="evenodd"/>
	<path id="Vector" d="M0 0C13.25 0 24 10.74 24 24L0 24L0 0Z" fill="#703BF7" fill-opacity="1.000000" fill-rule="evenodd"/>
	<path id="Vector" d="M24 48C37.25 48 48 37.25 48 24L24 24L24 48Z" fill="#703BF7" fill-opacity="1.000000" fill-rule="evenodd"/>
	<path id="Vector" d="M48 24C48 10.74 37.25 0 24 0L24 24L48 24Z" fill="#703BF7" fill-opacity="1.000000" fill-rule="evenodd"/>
	<rect id="Прямоугольник 1" y="90.500000" width="1612.000000" height="809.000000" fill="#C4C4C4" fill-opacity="1.000000"/>
	<g filter="url(#filter_60_3106_dd)">
		<path id="Vector" d="M156.82 34.86L156.82 26.85C156.82 25.92 156.52 25.16 155.92 24.57C155.34 23.97 154.59 23.67 153.67 23.67C153.05 23.67 152.5 23.8 152.02 24.07C151.54 24.34 151.16 24.72 150.89 25.2C150.62 25.68 150.49 26.23 150.49 26.85L149.24 26.15C149.24 25.1 149.47 24.16 149.94 23.35C150.4 22.52 151.03 21.88 151.84 21.41C152.67 20.93 153.6 20.69 154.62 20.69C155.66 20.69 156.58 20.96 157.39 21.5C158.2 22.02 158.84 22.71 159.3 23.55C159.76 24.38 160 25.25 160 26.15L160 34.86L156.82 34.86ZM147.31 34.86L147.31 20.98L150.49 20.98L150.49 34.86L147.31 34.86Z" fill="#FFFFFF" fill-opacity="1.000000" fill-rule="evenodd"/>
		<path id="Vector" d="M140.56 34.86L140.56 20.98L143.74 20.98L143.74 34.86L140.56 34.86ZM142.15 18.44C141.61 18.44 141.16 18.25 140.79 17.89C140.44 17.52 140.27 17.07 140.27 16.53C140.27 15.99 140.44 15.54 140.79 15.17C141.16 14.8 141.61 14.62 142.15 14.62C142.71 14.62 143.16 14.8 143.51 15.17C143.86 15.54 144.03 15.99 144.03 16.53C144.03 17.07 143.86 17.52 143.51 17.89C143.16 18.25 142.71 18.44 142.15 18.44Z" fill="#FFFFFF" fill-opacity="1.000000" fill-rule="evenodd"/>
		<path id="Vector" d="M131.54 35.14C130.15 35.14 128.9 34.84 127.78 34.22C126.68 33.58 125.8 32.72 125.15 31.62C124.51 30.52 124.19 29.29 124.19 27.92C124.19 26.55 124.51 25.33 125.15 24.25C125.78 23.15 126.64 22.28 127.72 21.65C128.82 21.01 130.03 20.69 131.36 20.69C132.65 20.69 133.79 20.99 134.77 21.59C135.78 22.19 136.56 23 137.12 24.04C137.69 25.09 137.98 26.27 137.98 27.6C137.98 27.83 137.96 28.07 137.92 28.32C137.91 28.55 137.87 28.81 137.81 29.1L126.42 29.1L126.42 26.5L136.16 26.5L134.98 27.54C134.94 26.69 134.77 25.98 134.48 25.4C134.2 24.83 133.78 24.38 133.24 24.07C132.72 23.77 132.08 23.61 131.31 23.61C130.5 23.61 129.79 23.78 129.2 24.13C128.6 24.48 128.14 24.97 127.81 25.61C127.48 26.22 127.32 26.96 127.32 27.83C127.32 28.7 127.49 29.46 127.84 30.11C128.18 30.77 128.67 31.28 129.31 31.65C129.95 31.99 130.68 32.17 131.51 32.17C132.22 32.17 132.88 32.04 133.47 31.79C134.09 31.54 134.61 31.17 135.03 30.69L137.06 32.75C136.38 33.54 135.56 34.13 134.6 34.54C133.64 34.94 132.62 35.14 131.54 35.14Z" fill="#FFFFFF" fill-opacity="1.000000" fill-rule="evenodd"/>
		<path id="Vector" d="M116.67 34.86L116.67 15.2L119.85 15.2L119.85 34.86L116.67 34.86ZM113.35 23.87L113.35 20.98L123.18 20.98L123.18 23.87L113.35 23.87Z" fill="#FFFFFF" fill-opacity="1.000000" fill-rule="evenodd"/>
		<path id="Vector" d="M103.6 35.14C102.35 35.14 101.22 34.83 100.19 34.19C99.19 33.55 98.39 32.7 97.79 31.62C97.22 30.52 96.93 29.3 96.93 27.95C96.93 26.58 97.22 25.36 97.79 24.28C98.39 23.18 99.19 22.31 100.19 21.67C101.22 21.02 102.35 20.69 103.6 20.69C104.66 20.69 105.6 20.92 106.41 21.39C107.24 21.83 107.89 22.45 108.37 23.24C108.86 24.03 109.1 24.92 109.1 25.92L109.1 29.91C109.1 30.91 108.86 31.81 108.37 32.6C107.91 33.39 107.27 34.02 106.44 34.48C105.61 34.92 104.66 35.14 103.6 35.14ZM104.12 32.14C105.3 32.14 106.24 31.74 106.96 30.95C107.69 30.16 108.06 29.15 108.06 27.92C108.06 27.09 107.89 26.36 107.56 25.72C107.24 25.09 106.77 24.59 106.18 24.25C105.6 23.88 104.91 23.7 104.12 23.7C103.35 23.7 102.67 23.88 102.07 24.25C101.49 24.59 101.03 25.09 100.69 25.72C100.36 26.36 100.19 27.09 100.19 27.92C100.19 28.75 100.36 29.48 100.69 30.11C101.03 30.75 101.49 31.25 102.07 31.62C102.67 31.96 103.35 32.14 104.12 32.14ZM107.85 34.86L107.85 31.13L108.4 27.74L107.85 24.39L107.85 20.98L111.03 20.98L111.03 34.86L107.85 34.86Z" fill="#FFFFFF" fill-opacity="1.000000" fill-rule="evenodd"/>
		<path id="Vector" d="M89.37 34.86L89.37 15.2L92.55 15.2L92.55 34.86L89.37 34.86ZM86.05 23.87L86.05 20.98L95.88 20.98L95.88 23.87L86.05 23.87Z" fill="#FFFFFF" fill-opacity="1.000000" fill-rule="evenodd"/>
		<path id="Vector" d="M79.38 35.14C78.61 35.14 77.87 35.05 77.16 34.86C76.44 34.64 75.79 34.35 75.19 33.99C74.59 33.6 74.07 33.14 73.63 32.6L75.65 30.58C76.14 31.14 76.68 31.56 77.3 31.85C77.94 32.12 78.65 32.25 79.44 32.25C80.15 32.25 80.69 32.15 81.06 31.94C81.43 31.72 81.61 31.42 81.61 31.01C81.61 30.59 81.43 30.26 81.09 30.03C80.74 29.8 80.29 29.6 79.73 29.45C79.19 29.28 78.61 29.1 78 28.93C77.4 28.76 76.82 28.53 76.26 28.24C75.72 27.93 75.28 27.51 74.93 26.99C74.58 26.47 74.41 25.8 74.41 24.97C74.41 24.08 74.61 23.32 75.02 22.69C75.44 22.05 76.03 21.56 76.78 21.21C77.55 20.87 78.47 20.69 79.53 20.69C80.64 20.69 81.63 20.89 82.48 21.3C83.34 21.68 84.07 22.27 84.64 23.06L82.62 25.09C82.22 24.58 81.75 24.21 81.23 23.96C80.71 23.71 80.12 23.58 79.44 23.58C78.8 23.58 78.31 23.68 77.97 23.87C77.62 24.06 77.45 24.34 77.45 24.71C77.45 25.1 77.62 25.39 77.97 25.61C78.31 25.82 78.76 26 79.3 26.15C79.85 26.31 80.43 26.48 81.03 26.68C81.65 26.85 82.23 27.1 82.77 27.43C83.32 27.74 83.78 28.16 84.12 28.7C84.47 29.22 84.64 29.9 84.64 30.75C84.64 32.1 84.17 33.17 83.23 33.96C82.28 34.75 81 35.14 79.38 35.14Z" fill="#FFFFFF" fill-opacity="1.000000" fill-rule="evenodd"/>
		<path id="Vector" d="M58.23 34.86L58.23 14.62L61.55 14.62L61.55 34.86L58.23 34.86ZM60.51 34.86L60.51 31.82L71.84 31.82L71.84 34.86L60.51 34.86ZM60.51 25.98L60.51 23.06L70.86 23.06L70.86 25.98L60.51 25.98ZM60.51 17.66L60.51 14.62L71.7 14.62L71.7 17.66L60.51 17.66Z" fill="#FFFFFF" fill-opacity="1.000000" fill-rule="evenodd"/>
	</g>
</svg>
