<svg width="44.000000" height="44.000000" viewBox="0 0 44 44" fill="none" xmlns="http://www.w3.org/2000/svg" xmlns:xlink="http://www.w3.org/1999/xlink">
	<desc>
			Created with Pixso.
	</desc>
	<defs/>
	<rect id="Sub Container" rx="21.500000" width="43.000000" height="43.000000" transform="translate(0.500000 0.500000)" fill="#1A1A1A" fill-opacity="1.000000"/>
	<path id="Shape" d="M21.15 11.3L18.11 16.04C17.98 16.25 17.77 16.4 17.53 16.46L12.09 17.89C11.38 18.08 11.11 18.93 11.57 19.49L15.13 23.84C15.29 24.04 15.37 24.28 15.35 24.53L15.03 30.15C14.99 30.88 15.71 31.4 16.39 31.14L21.63 29.1C21.87 29.01 22.12 29.01 22.36 29.1L27.6 31.14C28.28 31.4 29 30.88 28.96 30.15L28.64 24.53C28.62 24.28 28.7 24.04 28.86 23.84L32.42 19.49C32.88 18.93 32.61 18.08 31.9 17.89L26.46 16.46C26.22 16.4 26.01 16.25 25.88 16.04L22.84 11.3C22.44 10.69 21.55 10.69 21.15 11.3Z" fill="#FFE600" fill-opacity="1.000000" fill-rule="evenodd"/>
	<rect id="Sub Container" rx="21.500000" width="43.000000" height="43.000000" transform="translate(0.500000 0.500000)" stroke="#262626" stroke-opacity="1.000000" stroke-width="1.000000"/>
</svg>
