<svg width="82.000000" height="82.000000" viewBox="0 0 82 82" fill="none" xmlns="http://www.w3.org/2000/svg" xmlns:xlink="http://www.w3.org/1999/xlink">
	<desc>
			Created with Pixso.
	</desc>
	<defs>
		<clipPath id="clip122_1933">
			<rect id="Icon" rx="0.000000" width="33.000000" height="33.000000" transform="translate(24.500000 24.500000)" fill="white" fill-opacity="0"/>
		</clipPath>
		<linearGradient x1="6.750008" y1="86.499977" x2="85.750023" y2="-5.499985" id="paint_linear_121_1916_0" gradientUnits="userSpaceOnUse">
			<stop stop-color="#A685FA"/>
			<stop offset="0.323723" stop-color="#A685FA" stop-opacity="0.000000"/>
		</linearGradient>
		<linearGradient x1="81.750000" y1="-10.500015" x2="6.750031" y2="82.000008" id="paint_linear_121_1916_1" gradientUnits="userSpaceOnUse">
			<stop stop-color="#A685FA"/>
			<stop offset="0.576615" stop-color="#A685FA" stop-opacity="0.000000"/>
		</linearGradient>
		<linearGradient x1="3.250000" y1="13.500000" x2="71.750000" y2="72.000000" id="paint_linear_121_1917_0" gradientUnits="userSpaceOnUse">
			<stop stop-color="#A685FA"/>
			<stop offset="0.323723" stop-color="#A685FA" stop-opacity="0.000000"/>
		</linearGradient>
		<linearGradient x1="84.250000" y1="86.000015" x2="12.249989" y2="35.000031" id="paint_linear_121_1917_1" gradientUnits="userSpaceOnUse">
			<stop stop-color="#A685FA"/>
			<stop offset="0.576615" stop-color="#A685FA" stop-opacity="0.000000"/>
		</linearGradient>
	</defs>
	<g clip-path="url(#clip122_1933)">
		<path id="Union" d="M41 27.18C41.58 27.18 42.06 27.66 42.06 28.25L42.06 31.43C42.06 32.02 41.58 32.5 41 32.5C40.41 32.5 39.93 32.02 39.93 31.43L39.93 28.25C39.93 27.66 40.41 27.18 41 27.18ZM34.98 34.98C34.57 35.4 33.9 35.4 33.48 34.98L31.23 32.73C31.02 32.52 30.92 32.25 30.92 31.98C30.92 31.71 31.02 31.44 31.23 31.23C31.64 30.81 32.32 30.81 32.73 31.23L34.98 33.48C35.19 33.69 35.3 33.96 35.3 34.23C35.3 34.51 35.19 34.78 34.98 34.98ZM51.07 31.98C51.07 32.25 50.97 32.52 50.76 32.73L48.51 34.98C48.09 35.4 47.42 35.4 47.01 34.98C46.8 34.78 46.69 34.51 46.69 34.23C46.69 33.96 46.8 33.69 47.01 33.48L49.26 31.23C49.67 30.81 50.35 30.81 50.76 31.23C50.97 31.44 51.07 31.71 51.07 31.98ZM34.62 41C34.62 37.47 37.47 34.62 41 34.62C44.52 34.62 47.37 37.47 47.37 41C47.37 44.52 44.52 47.37 41 47.37C37.47 47.37 34.62 44.52 34.62 41ZM32.5 41C32.5 41.58 32.02 42.06 31.43 42.06L28.25 42.06C27.66 42.06 27.18 41.58 27.18 41C27.18 40.41 27.66 39.93 28.25 39.93L31.43 39.93C32.02 39.93 32.5 40.41 32.5 41ZM54.81 41C54.81 41.58 54.33 42.06 53.75 42.06L50.56 42.06C49.97 42.06 49.5 41.58 49.5 41C49.5 40.41 49.97 39.93 50.56 39.93L53.75 39.93C54.33 39.93 54.81 40.41 54.81 41ZM50.76 50.76C50.35 51.18 49.67 51.18 49.26 50.76L47.01 48.51C46.8 48.3 46.69 48.03 46.69 47.76C46.69 47.48 46.8 47.21 47.01 47.01C47.42 46.59 48.09 46.59 48.51 47.01L50.76 49.26C50.97 49.47 51.07 49.74 51.07 50.01C51.07 50.28 50.97 50.55 50.76 50.76ZM35.3 47.76C35.3 48.03 35.19 48.3 34.98 48.51L32.73 50.76C32.32 51.18 31.64 51.18 31.23 50.76C31.02 50.55 30.92 50.28 30.92 50.01C30.92 49.74 31.02 49.47 31.23 49.26L33.48 47.01C33.9 46.59 34.57 46.59 34.98 47.01C35.19 47.21 35.3 47.48 35.3 47.76ZM41 49.5C41.58 49.5 42.06 49.97 42.06 50.56L42.06 53.75C42.06 54.33 41.58 54.81 41 54.81C40.41 54.81 39.93 54.33 39.93 53.75L39.93 50.56C39.93 49.97 40.41 49.5 41 49.5Z" fill="#A685FA" fill-opacity="1.000000" fill-rule="evenodd"/>
	</g>
	<rect id="Container" rx="30.500000" width="61.000000" height="61.000000" transform="translate(10.500000 10.500000)" stroke="url(#paint_linear_121_1917_0)" stroke-opacity="1.000000" stroke-width="1.000000"/>
	<rect id="Container" rx="30.500000" width="61.000000" height="61.000000" transform="translate(10.500000 10.500000)" stroke="url(#paint_linear_121_1917_1)" stroke-opacity="1.000000" stroke-width="1.000000"/>
	<rect id="Icon Container" rx="40.500000" width="81.000000" height="81.000000" transform="translate(0.500000 0.500000)" stroke="url(#paint_linear_121_1916_0)" stroke-opacity="1.000000" stroke-width="1.000000"/>
	<rect id="Icon Container" rx="40.500000" width="81.000000" height="81.000000" transform="translate(0.500000 0.500000)" stroke="url(#paint_linear_121_1916_1)" stroke-opacity="1.000000" stroke-width="1.000000"/>
</svg>
