<svg width="19.879883" height="20.000244" viewBox="0 0 19.8799 20.0002" fill="none" xmlns="http://www.w3.org/2000/svg" xmlns:xlink="http://www.w3.org/1999/xlink">
	<desc>
			Created with Pixso.
	</desc>
	<defs/>
	<path id="Vector" d="M18.41 0L1.47 0C1.27 -0.01 1.09 0.03 0.91 0.1C0.73 0.17 0.57 0.27 0.43 0.41C0.3 0.54 0.19 0.7 0.11 0.87C0.04 1.05 0 1.23 0 1.43L0 18.57C0 18.76 0.04 18.94 0.11 19.12C0.19 19.29 0.3 19.45 0.43 19.58C0.57 19.72 0.73 19.82 0.91 19.89C1.09 19.96 1.27 20 1.47 20L18.41 20C18.6 20 18.78 19.96 18.96 19.89C19.14 19.82 19.3 19.72 19.44 19.58C19.57 19.45 19.68 19.29 19.76 19.12C19.83 18.94 19.87 18.76 19.87 18.57L19.87 1.43C19.87 1.23 19.83 1.05 19.76 0.87C19.68 0.7 19.57 0.54 19.44 0.41C19.3 0.27 19.14 0.17 18.96 0.1C18.78 0.03 18.6 -0.01 18.41 0ZM6.02 16.74L3.02 16.74L3.02 7.74L6.02 7.74L6.02 16.74ZM4.52 6.48C4.11 6.48 3.71 6.31 3.42 6.02C3.13 5.73 2.97 5.33 2.97 4.92C2.97 4.5 3.13 4.1 3.42 3.81C3.71 3.52 4.11 3.36 4.52 3.36C4.74 3.33 4.97 3.35 5.18 3.42C5.39 3.49 5.58 3.6 5.75 3.74C5.91 3.89 6.04 4.07 6.13 4.27C6.22 4.48 6.27 4.69 6.27 4.92C6.27 5.14 6.22 5.35 6.13 5.56C6.04 5.76 5.91 5.94 5.75 6.09C5.58 6.23 5.39 6.34 5.18 6.41C4.97 6.48 4.74 6.5 4.52 6.48ZM16.85 16.74L13.85 16.74L13.85 11.91C13.85 10.7 13.41 9.91 12.33 9.91C11.99 9.91 11.66 10.01 11.38 10.21C11.11 10.4 10.9 10.68 10.79 11C10.71 11.23 10.67 11.48 10.68 11.73L10.68 16.73L7.68 16.73C7.68 16.73 7.68 8.55 7.68 7.73L10.68 7.73L10.68 9C10.96 8.52 11.35 8.13 11.83 7.87C12.31 7.6 12.85 7.47 13.39 7.5C15.39 7.5 16.85 8.79 16.85 11.56L16.85 16.74Z" fill="#FFFFFF" fill-opacity="1.000000" fill-rule="nonzero"/>
</svg>
