<svg width="22.013672" height="15.468750" viewBox="0 0 22.0137 15.4688" fill="none" xmlns="http://www.w3.org/2000/svg" xmlns:xlink="http://www.w3.org/1999/xlink">
	<desc>
			Created with Pixso.
	</desc>
	<defs/>
	<path id="Vector" d="M22 5.45C22.05 4.02 21.74 2.59 21.09 1.32C20.66 0.79 20.05 0.44 19.37 0.32C16.59 0.06 13.8 -0.04 11 0.01C8.22 -0.04 5.44 0.06 2.66 0.31C2.12 0.41 1.61 0.66 1.2 1.05C0.3 1.88 0.2 3.3 0.1 4.5C-0.04 6.65 -0.04 8.82 0.1 10.98C0.13 11.65 0.23 12.32 0.4 12.98C0.52 13.48 0.77 13.95 1.11 14.34C1.52 14.74 2.04 15.01 2.6 15.12C4.76 15.38 6.93 15.49 9.1 15.45C12.6 15.5 15.67 15.45 19.3 15.17C19.88 15.07 20.41 14.8 20.83 14.39C21.11 14.11 21.32 13.76 21.44 13.39C21.8 12.29 21.98 11.14 21.96 9.99C22 9.43 22 6.05 22 5.45ZM8.74 10.59L8.74 4.4L14.66 7.51C13 8.43 10.81 9.47 8.74 10.59Z" fill="#FFFFFF" fill-opacity="1.000000" fill-rule="nonzero"/>
</svg>
